<svg width="28" height="28" viewBox="0 0 28 28" fill="none" xmlns="http://www.w3.org/2000/svg">
<g clip-path="url(#clip0_1001_2423)">
<path d="M21.02 21.5538C18.9998 23.1011 16.5399 23.9583 14 24C5.72727 24 1 14.5 1 14.5C2.47005 11.7473 4.50898 9.34224 6.98 7.44628M11.5182 5.28503C12.3317 5.0937 13.1645 4.99806 14 5.00003C22.2727 5.00003 27 14.5 27 14.5C26.2826 15.8485 25.4271 17.1181 24.4473 18.2881M16.5055 17.0175C16.1809 17.3675 15.7894 17.6483 15.3545 17.843C14.9196 18.0377 14.4502 18.1424 13.9741 18.1508C13.4981 18.1593 13.0252 18.0713 12.5837 17.8921C12.1422 17.7129 11.7412 17.4462 11.4045 17.1079C11.0679 16.7697 10.8025 16.3667 10.6241 15.9231C10.4458 15.4795 10.3583 15.0044 10.3667 14.526C10.3751 14.0477 10.4793 13.576 10.673 13.139C10.8668 12.702 11.1462 12.3087 11.4945 11.9825" stroke="black" stroke-width="2" stroke-linecap="round" stroke-linejoin="round"/>
<path d="M1 1L27 27" stroke="black" stroke-width="2" stroke-linecap="round" stroke-linejoin="round"/>
</g>
<defs>
<clipPath id="clip0_1001_2423">
<rect width="28" height="28" fill="white"/>
</clipPath>
</defs>
</svg>
