<svg width="1150" height="1151" viewBox="0 0 1150 1151" fill="none" xmlns="http://www.w3.org/2000/svg">
<circle cx="575" cy="575.871" r="570.508" fill="#FBDBA3" stroke="black" stroke-width="8.98438"/>
<path opacity="0.5" d="M571.981 788.665C595.748 788.665 617.023 783.682 635.806 773.715C654.973 763.748 669.923 750.14 680.656 732.89C691.39 715.257 696.756 695.323 696.756 673.09C696.756 653.157 692.348 636.482 683.531 623.065C675.098 609.265 663.79 597.765 649.606 588.565C635.806 579.365 617.406 569.59 594.406 559.24C568.723 547.356 548.79 537.198 534.606 528.765C520.806 520.331 509.881 510.365 501.831 498.865C494.165 487.365 490.331 473.182 490.331 456.315C490.331 432.931 497.423 414.531 511.606 401.115C525.79 387.315 544.765 380.415 568.531 380.415C608.015 380.415 637.34 400.157 656.506 439.64C666.09 459.19 673.948 481.806 680.081 507.49L685.831 505.765L680.081 380.415H672.606L658.806 408.015C643.09 395.748 628.331 386.931 614.531 381.565C601.115 376.198 586.548 373.515 570.831 373.515C548.215 373.515 527.898 378.306 509.881 387.89C492.248 397.09 478.256 410.123 467.906 426.99C457.94 443.473 452.956 462.256 452.956 483.34C452.956 504.04 457.556 521.673 466.756 536.24C476.34 550.423 488.223 562.115 502.406 571.315C516.59 580.132 534.223 589.14 555.306 598.34C580.99 609.457 600.923 619.232 615.106 627.665C629.29 636.098 640.406 646.257 648.456 658.14C656.89 670.023 661.106 684.59 661.106 701.84C661.106 726.373 653.248 745.923 637.531 760.49C622.198 774.673 600.731 781.765 573.131 781.765C540.931 781.765 515.056 770.84 495.506 748.99C485.923 738.257 478.065 725.607 471.931 711.04C466.181 696.473 460.431 676.157 454.681 650.09L449.506 651.24L456.981 788.665H464.456L476.531 757.04C488.415 767.007 502.79 774.673 519.656 780.04C536.523 785.79 553.965 788.665 571.981 788.665Z" fill="black"/>
</svg>
