<svg width="22" height="22" viewBox="0 0 22 22" fill="none" xmlns="http://www.w3.org/2000/svg">
<path d="M16.1298 1.8356C16.3947 1.57068 16.7092 1.36054 17.0553 1.21716C17.4015 1.07379 17.7725 1 18.1471 1C18.5217 1 18.8927 1.07379 19.2389 1.21716C19.585 1.36054 19.8995 1.57068 20.1644 1.8356C20.4293 2.10051 20.6395 2.41501 20.7828 2.76114C20.9262 3.10727 21 3.47825 21 3.8529C21 4.22755 20.9262 4.59853 20.7828 4.94466C20.6395 5.29079 20.4293 5.60529 20.1644 5.87021L6.54759 19.487L1 21L2.51298 15.4524L16.1298 1.8356Z" stroke="black" stroke-width="2" stroke-linecap="round" stroke-linejoin="round"/>
</svg>
