<svg width="17" height="20" viewBox="0 0 17 20" fill="none" xmlns="http://www.w3.org/2000/svg">
<path d="M7.19231 3.16921L6.73 2.69283L6.26756 3.16921L6.73 3.64559L7.19231 3.16921ZM8.5 2.49567H7.84615V3.84297H8.5V2.49567ZM1.30769 11.2478V10.5742H0V11.2478H1.30769ZM9.34408 0L6.73 2.69283L7.65462 3.64559L10.2687 0.952752L9.34408 0ZM6.73 3.64559L9.34408 6.33841L10.2687 5.38566L7.65462 2.69283L6.73 3.64559ZM8.5 3.84297C12.4717 3.84297 15.6923 7.1596 15.6923 11.2478H17C17 6.41468 13.193 2.49567 8.5 2.49567V3.84297ZM15.6923 11.2478C15.6923 15.3361 12.4717 18.6527 8.5 18.6527V20C13.193 20 17 16.081 17 11.2478H15.6923ZM8.5 18.6527C4.52832 18.6527 1.30769 15.3361 1.30769 11.2478H0C0 16.081 3.80691 20 8.5 20V18.6527Z" fill="white"/>
</svg>
